<svg xmlns="http://www.w3.org/2000/svg" width="168.075" height="68.596" viewBox="0 0 168.075 68.596"><defs><style>      .cls-1 {        fill: #8db849;      }      .cls-2 {        fill: #5a863e;      }      .cls-3 {        fill: #fffffe;      }      .cls-4 {        fill: #1a1919;      }    </style></defs><g id="Group_69286" data-name="Group 69286" transform="translate(-1241.768 -1035.39)"><g id="Group_69285" data-name="Group 69285" transform="translate(1241.768 1035.39)"><path id="Path_116340" data-name="Path 116340" class="cls-1" d="M27.345,2.28c.484,0,.726.242,1.21.484-2.9,1.21-5.808,4.356-7.26,11.132l-5.324,1.452C17.665,10.508,21.053,2.28,27.345,2.28ZM30.007,4.7a16.874,16.874,0,0,1,.968,5.808v.484l-7.018,1.936C25.409,7.846,27.829,5.668,30.007,4.7ZM36.3,9.056l-3.146.968V9.3a16.631,16.631,0,0,0-.726-5.324C34.121,4.458,35.573,6.636,36.3,9.056Zm15.729,3.872a.52.52,0,0,0-.484-.484c-.484,0-5.566-.484-5.566-.484s-3.63-3.63-4.114-3.872c-.484-.484-1.21-.242-1.452-.242,0,0-.726.242-1.936.726-1.21-3.388-3.388-6.534-7.018-6.534h-.242A4.279,4.279,0,0,0,27.587.1C18.875-.14,14.761,10.75,13.309,16.316c-1.936.484-3.872,1.21-6.05,1.936-1.936.484-1.936.726-2.178,2.42C4.84,21.881,0,60.116,0,60.116l38.477,7.26,20.811-4.6S52.028,13.412,52.028,12.928Z" transform="translate(0 -0.098)"></path><path id="Path_116341" data-name="Path 116341" class="cls-2" d="M28.726,7.9c-.242,0-5.324-.484-5.324-.484s-3.63-3.63-4.114-3.872C19.046,3.3,19.046,3.3,18.8,3.3L15.9,62.83l20.811-4.6s-7.26-49.366-7.26-49.85c0-.242-.484-.484-.726-.484" transform="translate(22.577 4.448)"></path><path id="Path_116342" data-name="Path 116342" class="cls-3" d="M26.205,10.587,23.543,18.33a11.474,11.474,0,0,0-5.082-1.21c-4.114,0-4.356,2.42-4.356,3.146,0,3.388,9.2,4.84,9.2,13.067,0,6.534-4.114,10.648-9.68,10.648A13.3,13.3,0,0,1,3.7,39.868L5.394,34.06s3.388,2.9,6.292,2.9A2.526,2.526,0,0,0,14.348,34.3c0-4.6-7.5-4.84-7.5-12.342,0-6.292,4.6-12.342,13.551-12.342,4.114-.242,5.808.968,5.808.968" transform="translate(5.254 13.374)"></path></g><g id="shopify-2-2" transform="translate(1313.936 1043.317)"><path id="Path_116339" data-name="Path 116339" class="cls-4" d="M36.543,19.213c-1.187-.659-1.714-1.187-1.714-1.846,0-.923.791-1.45,2.11-1.45a7.011,7.011,0,0,1,2.769.659l1.055-3.165s-.923-.791-3.692-.791c-3.956,0-6.593,2.242-6.593,5.406,0,1.846,1.319,3.165,2.9,4.088,1.319.791,1.846,1.319,1.846,2.11s-.659,1.582-1.978,1.582a9.547,9.547,0,0,1-3.692-.923L28.5,28.048A8.345,8.345,0,0,0,32.851,29.1c3.956,0,6.857-1.978,6.857-5.538,0-1.978-1.45-3.428-3.165-4.351M52.5,12.488a6,6,0,0,0-4.747,2.373h0L49.465,5.9H44.982L40.631,28.707h4.483l1.45-7.78c.527-2.9,2.11-4.747,3.56-4.747,1.055,0,1.45.659,1.45,1.714a9.98,9.98,0,0,1-.132,1.978l-1.714,8.966h4.483l1.714-9.23a23.682,23.682,0,0,0,.264-2.9c0-2.637-1.319-4.219-3.692-4.219M63.97,25.542c-1.582,0-2.11-1.319-2.11-2.9,0-2.505,1.319-6.725,3.692-6.725,1.582,0,2.11,1.319,2.11,2.637C67.662,21.455,66.343,25.542,63.97,25.542Zm2.242-13.054c-5.406,0-8.966,4.879-8.966,10.285,0,3.428,2.11,6.2,6.2,6.2,5.274,0,8.834-4.747,8.834-10.285C72.277,15.521,70.431,12.488,66.211,12.488ZM79.4,25.674a2.729,2.729,0,0,1-1.846-.659l.791-4.219c.527-2.769,1.978-4.615,3.56-4.615,1.319,0,1.846,1.319,1.846,2.505C83.617,21.587,81.9,25.674,79.4,25.674Zm4.351-13.186A6.136,6.136,0,0,0,79,15.126h0l.264-2.373H75.31a54.588,54.588,0,0,1-.923,5.934l-3.165,16.35h4.483l1.187-6.593h.132a5.694,5.694,0,0,0,2.637.527c5.274,0,8.7-5.406,8.7-10.812C88.363,15.257,87.045,12.488,83.748,12.488ZM94.693,6.159A2.535,2.535,0,0,0,92.187,8.8a2.044,2.044,0,0,0,2.11,2.242h0A2.49,2.49,0,0,0,96.934,8.4a2.146,2.146,0,0,0-2.242-2.242M88.5,28.707h4.483l3.033-15.823H91.528Zm18.856-15.823h-3.165l.132-.791c.264-1.582,1.187-2.9,2.637-2.9a4.352,4.352,0,0,1,1.45.264l.923-3.56a5.742,5.742,0,0,0-2.373-.4A6.44,6.44,0,0,0,102.6,6.95a8.489,8.489,0,0,0-2.637,5.011l-.132.791h-2.11l-.659,3.428h2.11L96.8,28.707h4.483l2.373-12.526h3.033Zm10.68,0s-2.769,6.988-4.088,10.812h0c-.132-1.187-1.055-10.812-1.055-10.812h-4.747l2.637,14.5a1.672,1.672,0,0,1-.132.791,7.615,7.615,0,0,1-2.373,2.637,9.252,9.252,0,0,1-2.505,1.319l1.187,3.824a9.57,9.57,0,0,0,4.351-2.373,29.181,29.181,0,0,0,5.8-8.834l5.406-11.735Z" transform="translate(-28.5 -5.5)"></path></g><g id="shopify-2" transform="translate(1313.936 1077.285)"><g id="_556679a9f2a1a7c4b36f_1_" data-name="556679a9f2a1a7c4b36f (1)" transform="translate(0 0)"><path id="Path_140399" data-name="Path 140399" d="M245.565,34.785c-2.174,0-4.239,1.4-5.7,3.657h-.055l.523-3.3h-1.4c-.193,1.514-.523,3.469-.908,5.643l-3.276,17.452H236.2l1.294-7.074h.055a6.841,6.841,0,0,0,3.276.716c5.23,0,9-6.221,9-11.754,0-2.7-1.186-5.337-4.266-5.337Zm-4.624,15.773a5.151,5.151,0,0,1-3.162-.908l1.046-5.643c.908-4.955,3.964-7.928,6.276-7.928,2.422,0,3.162,2.174,3.162,4.129.027,4.211-2.974,10.35-7.323,10.35Zm10.405-3.688c0,2.945,1.514,4.983,3.992,4.983,2.147,0,4.239-1.129,6.111-4.735h.055a32.863,32.863,0,0,0-.413,4.4h1.431a36.3,36.3,0,0,1,.716-7.433l1.734-8.808a10.871,10.871,0,0,0-3.3-.468c-6.306-.028-10.324,6.468-10.324,12.056Zm10.791-4.546c-.8,4.239-3.8,8.23-6.441,8.23-2.229,0-2.835-1.9-2.808-4.074.028-5.148,3.716-10.405,8.423-10.405a5.9,5.9,0,0,1,1.981.248Zm8.093-3.606h-.055c.193-1.431.33-2.533.441-3.578h-1.321c-.137,1.431-.385,3.276-.8,5.367L266.4,51.544h1.459l1.569-8.341c.692-3.578,3.083-6.827,5.23-6.827a3.011,3.011,0,0,1,.551.028l.3-1.569c-.165,0-.413-.028-.606-.028-2.037-.028-3.688,1.707-4.679,3.909Zm9.827,11.809c-1.019,0-1.459-.578-1.459-1.542a16.341,16.341,0,0,1,.33-2.835l1.816-9.772H284.6l.276-1.266h-3.854l.716-3.578-1.651.66-.55,2.945H277.14l-.248,1.266h2.372l-1.844,9.772a13.517,13.517,0,0,0-.385,3,2.471,2.471,0,0,0,2.7,2.668,5.551,5.551,0,0,0,1.6-.248l-.11-1.186a3.931,3.931,0,0,1-1.156.11Zm14.067-15.741c-2.257,0-4.294,1.294-5.726,3.688h-.055l.468-3.36H287.4c-.137,1.266-.33,2.866-.715,4.817l-2.174,11.563h1.459l1.6-8.7c.715-3.964,3.827-6.689,6-6.689,2.009,0,2.7,1.238,2.7,2.945a13.045,13.045,0,0,1-.248,2.395l-1.9,10.074h1.459l1.872-10.074a13.8,13.8,0,0,0,.3-2.533c.028-3.11-2.009-4.129-3.634-4.129Zm14.038,0c-4.679,0-7.983,6.166-7.983,10.9,0,3.138,1.321,6.138,5.148,6.138a8.135,8.135,0,0,0,4.459-1.238l-.441-1.156a7.152,7.152,0,0,1-3.8,1.1,3.539,3.539,0,0,1-3.579-2.752,11.7,11.7,0,0,1-.137-4.1c5.368.028,10.13-1.129,10.13-5.285.027-1.873-1.1-3.606-3.8-3.606Zm2.285,3.657c0,3.248-4.1,3.964-8.369,3.936,1.019-3.551,3.276-6.276,5.808-6.276a2.256,2.256,0,0,1,2.56,2.313v.028Zm11.176-2.064.3-1.569c-.165,0-.413-.028-.606-.028-2.037,0-3.688,1.734-4.679,3.936h-.055c.193-1.431.33-2.533.441-3.578H315.7c-.137,1.431-.385,3.276-.8,5.367l-2.094,11.043h1.459l1.569-8.341c.692-3.578,3.083-6.827,5.23-6.827a1.8,1.8,0,0,1,.55,0Zm6.166-.3a4.6,4.6,0,0,1,2.313.692l.55-1.266a4.8,4.8,0,0,0-2.7-.715,4.744,4.744,0,0,0-4.983,4.652A4.942,4.942,0,0,0,325.5,43.51c1.542.988,2.229,1.981,2.229,3.606a3.426,3.426,0,0,1-3.606,3.413,5.04,5.04,0,0,1-2.866-.908l-.578,1.238a5.788,5.788,0,0,0,3.3.988,4.941,4.941,0,0,0,5.258-5.12,5.206,5.206,0,0,0-2.533-4.239c-1.321-.908-2.23-1.762-2.23-3.3a3.122,3.122,0,0,1,3.3-3.11Z" transform="translate(-234.745 -31.532)"></path></g></g></g></svg>