<svg xmlns="http://www.w3.org/2000/svg" width="180" height="43.868" viewBox="0 0 180 43.868"><defs><style>      .cls-1 {        fill: #222;      }    </style></defs><g id="Group_69240" data-name="Group 69240" transform="translate(-10 -4.812)"><g id="Group_20170" data-name="Group 20170" transform="translate(10 4.812)"><g id="Group_1" data-name="Group 1" transform="translate(0 0)"><path id="Path_1" data-name="Path 1" class="cls-1" d="M4.674,14.027,3.448,17.8a.276.276,0,0,1-.281.2H.211c-.179,0-.23-.1-.2-.255L5.109,3.03a4.65,4.65,0,0,0,.255-1.556A.17.17,0,0,1,5.516,1.3H9.6c.128,0,.179.026.2.153l5.788,16.327c.051.128.026.23-.128.23H12.146a.255.255,0,0,1-.28-.179l-1.3-3.8Zm4.949-3.193C9.112,9.15,8.091,6.064,7.608,4.253H7.582c-.406,1.711-1.324,4.519-1.99,6.585Z" transform="translate(0 0.083)"></path><path id="Path_2" data-name="Path 2" class="cls-1" d="M15.389,11.864c0-3.648,2.731-6.709,7.4-6.709.206,0,.46.026.842.05V.179A.162.162,0,0,1,23.808,0h3.217c.128,0,.152.051.152.153V15.23a14.4,14.4,0,0,0,.1,1.863c0,.128-.026.179-.179.229a12.8,12.8,0,0,1-5.027,1.022C18.3,18.344,15.389,16.2,15.389,11.864Zm8.24-3.622a2.637,2.637,0,0,0-.943-.128,3.4,3.4,0,0,0-3.649,3.576,3.193,3.193,0,0,0,3.39,3.617,3.593,3.593,0,0,0,1.2-.153Z" transform="translate(0.967 0.001)"></path><path id="Path_3" data-name="Path 3" class="cls-1" d="M41.217,11.379c0,4.005-2.6,6.659-6.276,6.659-4.363,0-6.3-3.291-6.3-6.582a6.243,6.243,0,0,1,6.353-6.607C39.1,4.849,41.217,7.936,41.217,11.379Zm-8.98.026c0,2.245,1.047,3.673,2.755,3.673,1.48,0,2.6-1.277,2.6-3.622,0-1.99-.815-3.648-2.755-3.648C33.36,7.808,32.237,9.129,32.237,11.4Z" transform="translate(1.799 0.306)"></path><path id="Path_4" data-name="Path 4" class="cls-1" d="M45.92,0c.206,0,.255.026.255.2V5.433a8.2,8.2,0,0,1,2.143-.28,5.839,5.839,0,0,1,6.123,6.072c0,4.77-3.775,7.119-7.653,7.119a13.4,13.4,0,0,1-4.006-.586.3.3,0,0,1-.152-.255V.179c0-.128.05-.179.179-.179Zm1.761,8.165a5.19,5.19,0,0,0-1.5.2v6.913a3.959,3.959,0,0,0,.943.1,3.512,3.512,0,0,0,3.7-3.831,3,3,0,0,0-3.142-3.388Z" transform="translate(2.682 0.001)"></path><path id="Path_5" data-name="Path 5" class="cls-1" d="M58.971,12.374c.128,1.455,1.149,2.653,3.648,2.653a7.918,7.918,0,0,0,3.141-.585c.078-.052.155-.027.155.128V17c0,.179-.051.255-.179.308a8.567,8.567,0,0,1-3.9.739c-4.8,0-6.48-3.291-6.48-6.455,0-3.52,2.171-6.734,6.175-6.734a5.2,5.2,0,0,1,5.383,5.5,8.1,8.1,0,0,1-.128,1.709.217.217,0,0,1-.2.2,23.726,23.726,0,0,1-2.628.1ZM62.291,9.9a8.327,8.327,0,0,0,1.277-.051V9.67A2.075,2.075,0,0,0,61.4,7.655a2.416,2.416,0,0,0-2.452,2.24Z" transform="translate(3.482 0.307)"></path><path id="Path_6" data-name="Path 6" class="cls-1" d="M1.005,41.387a.421.421,0,0,1-.179-.409V37.943c0-.128.1-.206.2-.128a8.792,8.792,0,0,0,4.618,1.327c1.939,0,2.7-.663,2.7-1.557,0-.816-.586-1.4-2.322-2.143l-1.277-.535c-3.135-1.328-4-2.909-4-4.9,0-2.755,2.091-4.95,6.148-4.95a9.579,9.579,0,0,1,3.981.663.33.33,0,0,1,.153.332v2.858c0,.1-.078.229-.23.128a8.067,8.067,0,0,0-3.93-.843c-1.964,0-2.653.663-2.653,1.506,0,.791.535,1.327,2.45,2.092l.945.383c3.392,1.4,4.342,3.01,4.342,5.077,0,3.088-2.5,5.027-6.429,5.027a9.985,9.985,0,0,1-4.522-.894Z" transform="translate(0.047 1.575)"></path><path id="Path_7" data-name="Path 7" class="cls-1" d="M25.473,35.379c0,4.006-2.6,6.659-6.276,6.659-4.363,0-6.3-3.291-6.3-6.582a6.243,6.243,0,0,1,6.353-6.607C23.355,28.849,25.473,31.936,25.473,35.379Zm-8.98.026c0,2.245,1.046,3.674,2.755,3.674,1.479,0,2.6-1.277,2.6-3.623,0-1.99-.815-3.648-2.755-3.648-1.479,0-2.6,1.321-2.6,3.6Z" transform="translate(0.808 1.816)"></path><path id="Path_8" data-name="Path 8" class="cls-1" d="M26.885,24.2c0-.128.051-.2.255-.2h3.036c.179,0,.255.077.255.2V38.491c0,.715.23.969.842.969a2.937,2.937,0,0,0,.46-.026c.1,0,.128.051.128.179v2.2c0,.2-.024.255-.179.307a4.2,4.2,0,0,1-1.581.23c-1.838,0-3.216-.69-3.216-3.521Z" transform="translate(1.691 1.511)"></path><path id="Path_9" data-name="Path 9" class="cls-1" d="M44.364,38.937a23.143,23.143,0,0,0,.152,2.626c.027.155-.051.206-.23.206h-2.7c-.2,0-.255-.051-.307-.179-.05-.23-.128-.562-.152-.792a5.19,5.19,0,0,1-3.5,1.226c-2.554,0-4.312-1.4-4.312-4.925V29.292c0-.179.051-.2.23-.2h3.112c.153,0,.179.051.179.2v7.4c0,1.378.586,2.271,1.991,2.271a2.823,2.823,0,0,0,1.99-.738V29.292c0-.152.075-.2.255-.2h3.087c.179,0,.206.051.206.2Z" transform="translate(2.096 1.83)"></path><path id="Path_10" data-name="Path 10" class="cls-1" d="M53.237,41.554c0,.155-.024.282-.179.332a6.358,6.358,0,0,1-2.271.358c-2.22,0-3.52-1.1-3.52-3.649V32.268H45.735c-.152-.026-.2-.077-.2-.23v-2.5c0-.179.051-.23.23-.23h1.533a28.231,28.231,0,0,1,.255-3.088.273.273,0,0,1,.231-.23l2.985-.383c.128-.026.2-.026.2.153-.077.791-.128,2.3-.128,3.547H53.19c.155,0,.206.051.206.2v2.579c0,.128-.051.153-.179.179h-2.4v5.459c0,1.123.332,1.632,1.378,1.632a5.015,5.015,0,0,0,.866-.1c.1,0,.179.027.179.179Z" transform="translate(2.864 1.611)"></path><path id="Path_11" data-name="Path 11" class="cls-1" d="M54.677,26.06A1.916,1.916,0,0,1,56.668,24.1a1.847,1.847,0,0,1,1.963,1.964,1.875,1.875,0,0,1-1.99,1.99,1.854,1.854,0,0,1-1.964-1.995Zm.179,3.545c0-.128.051-.2.2-.2H58.2c.155,0,.2.051.2.2V41.853c0,.152-.026.23-.229.23H55.109c-.179,0-.255-.078-.255-.23Z" transform="translate(3.438 1.517)"></path><path id="Path_12" data-name="Path 12" class="cls-1" d="M72.92,35.379c0,4.006-2.6,6.659-6.276,6.659-4.363,0-6.3-3.291-6.3-6.582a6.243,6.243,0,0,1,6.353-6.607C70.8,28.849,72.92,31.936,72.92,35.379Zm-8.981.026c0,2.245,1.047,3.674,2.755,3.674,1.48,0,2.6-1.277,2.6-3.623,0-1.99-.815-3.648-2.754-3.648-1.48,0-2.6,1.321-2.6,3.6Z" transform="translate(3.793 1.816)"></path><path id="Path_13" data-name="Path 13" class="cls-1" d="M74.339,32.064c0-.867-.051-2.194-.1-2.756-.024-.128.026-.2.179-.2H77.1a.3.3,0,0,1,.332.2,3.09,3.09,0,0,1,.2.842,5.6,5.6,0,0,1,3.623-1.3c1.964,0,4.286,1.022,4.286,5.128v7.581c0,.152-.051.23-.23.23H82.246c-.179,0-.255-.078-.255-.23v-7.28c0-1.533-.663-2.347-1.99-2.347a3.086,3.086,0,0,0-2.118.791v8.852c0,.128-.078.206-.23.206H74.569c-.179,0-.23-.078-.23-.23Z" transform="translate(4.669 1.816)"></path><path id="Path_14" data-name="Path 14" class="cls-1" d="M93.484,25.529c0-.153.026-.2.153-.2,1.046-.026,3.065-.077,5-.077,5.153,0,6.94,2.858,6.94,5.639,0,4.133-3.193,5.893-7.119,5.893H97V41.8c0,.128-.051.206-.2.206H93.663c-.128,0-.179-.078-.179-.206ZM97,33.641c.434.026.714.026,1.429.026,2.015,0,3.623-.612,3.623-2.7,0-1.608-1.1-2.628-3.321-2.628-.816,0-1.5.026-1.734.052Z" transform="translate(5.881 1.59)"></path><path id="Path_15" data-name="Path 15" class="cls-1" d="M116.462,38.953c0,.663,0,1.2.051,1.811,0,.05,0,.1-.051.128a14.1,14.1,0,0,1-5.562,1.149c-2.831,0-5.153-1.3-5.153-4.261,0-2.7,2.373-4.133,5.766-4.133a10.792,10.792,0,0,1,1.5.051v-.186c0-.485-.307-1.607-2.45-1.607a8.174,8.174,0,0,0-3.368.688.151.151,0,0,1-.23-.128V29.9a.224.224,0,0,1,.179-.255,9.6,9.6,0,0,1,4.006-.791c3.673,0,5.307,2.27,5.307,5.179Zm-3.448-2.628a9.538,9.538,0,0,0-1.277-.075c-1.811,0-2.554.586-2.554,1.5,0,.842.639,1.533,2.245,1.533a5.124,5.124,0,0,0,1.582-.23Z" transform="translate(6.652 1.816)"></path><path id="Path_16" data-name="Path 16" class="cls-1" d="M121.5,29.1a.282.282,0,0,1,.307.23,4.889,4.889,0,0,1,.282,1.428,5.324,5.324,0,0,1,4.055-1.916c.155,0,.206.05.206.2v3.138c0,.128-.051.179-.23.179a5.245,5.245,0,0,0-3.852,1.1l-.027,8.112c0,.155-.051.206-.23.206h-3.065c-.2,0-.255-.078-.255-.23v-8.8c0-1.1-.026-2.576-.128-3.469,0-.128.026-.179.153-.179Z" transform="translate(7.457 1.816)"></path><path id="Path_17" data-name="Path 17" class="cls-1" d="M134.882,41.554c0,.155-.024.282-.178.332a6.358,6.358,0,0,1-2.271.358c-2.22,0-3.521-1.1-3.521-3.649V32.268H127.38c-.153-.026-.2-.077-.2-.23v-2.5c0-.179.051-.23.23-.23h1.533a27.968,27.968,0,0,1,.255-3.088.272.272,0,0,1,.231-.23l2.983-.383c.128-.026.206-.026.206.153-.078.791-.128,2.3-.128,3.547h2.347c.153,0,.2.051.2.2v2.579c0,.128-.051.153-.179.179h-2.4v5.459c0,1.123.332,1.632,1.378,1.632a5.038,5.038,0,0,0,.867-.1c.1,0,.178.027.178.179Z" transform="translate(8 1.611)"></path><path id="Path_18" data-name="Path 18" class="cls-1" d="M136.449,32.064c0-.867-.051-2.194-.1-2.756-.024-.128.027-.2.179-.2h2.682a.3.3,0,0,1,.332.2,3.126,3.126,0,0,1,.2.842,5.6,5.6,0,0,1,3.622-1.3c1.966,0,4.286,1.022,4.286,5.128v7.581c0,.152-.051.23-.23.23h-3.065c-.179,0-.255-.078-.255-.23v-7.28c0-1.533-.663-2.347-1.99-2.347a3.088,3.088,0,0,0-2.118.791v8.852c0,.128-.077.206-.23.206h-3.091c-.179,0-.23-.078-.23-.23Z" transform="translate(8.577 1.816)"></path><path id="Path_19" data-name="Path 19" class="cls-1" d="M152.76,36.374c.128,1.455,1.149,2.654,3.648,2.654a7.884,7.884,0,0,0,3.138-.587c.078-.051.155-.024.155.128v2.427c0,.179-.051.255-.179.308a8.567,8.567,0,0,1-3.9.739c-4.8,0-6.48-3.291-6.48-6.453,0-3.521,2.171-6.736,6.175-6.736a5.2,5.2,0,0,1,5.383,5.51,8.1,8.1,0,0,1-.128,1.709.217.217,0,0,1-.2.2,23.724,23.724,0,0,1-2.628.1Zm3.321-2.474a8.327,8.327,0,0,0,1.277-.051V33.67a2.077,2.077,0,0,0-2.171-2.017,2.418,2.418,0,0,0-2.448,2.247Z" transform="translate(9.381 1.816)"></path><path id="Path_20" data-name="Path 20" class="cls-1" d="M164.96,29.1a.282.282,0,0,1,.307.23,4.889,4.889,0,0,1,.282,1.428,5.324,5.324,0,0,1,4.055-1.916c.155,0,.2.05.2.2v3.138c0,.128-.05.179-.229.179a5.244,5.244,0,0,0-3.852,1.1l-.027,8.112c0,.155-.051.206-.23.206h-3.065c-.2,0-.255-.078-.255-.23v-8.8c0-1.1-.026-2.576-.128-3.469,0-.128.026-.179.153-.179Z" transform="translate(10.191 1.816)"></path></g></g></g></svg>