<svg xmlns="http://www.w3.org/2000/svg" width="120" height="46.471" viewBox="0 0 120 46.471"><defs><style>      .cls-1 {        fill: #d52f2f;      }    </style></defs><path id="fastly" class="cls-1" d="M81.667,4.769v31.31h9.4V31.3H87.964V0h-6.3ZM0,31.295H3.2V16.189H0V12.035l3.2-.526V7.3C3.2,2.211,4.305,0,10.8,0a27.02,27.02,0,0,1,4.522.469L14.46,5.59a11.759,11.759,0,0,0-2.1-.184c-2.289,0-2.867.229-2.867,2.464v3.639h4.752v4.68H9.495V31.295h3.164v4.783H0V31.295Zm78.463-1.512a12.417,12.417,0,0,1-2.47.2c-2.591.064-2.367-.788-2.367-3.231V16.189h4.931v-4.68H73.626V0h-6.3V28.056c0,5.508,1.359,8.022,7.284,8.022a25.9,25.9,0,0,0,4.787-.673Zm-19-13.6v-.838a27.105,27.105,0,0,0-4.823-.353c-2.931,0-3.288,1.554-3.288,2.4,0,1.192.407,1.836,3.582,2.531,4.641,1.042,9.3,2.129,9.3,7.884,0,5.458-2.809,8.277-8.721,8.277a44.211,44.211,0,0,1-10.724-1.593v-4.7h4.769l0,.836a28.058,28.058,0,0,0,5.327.357c3.126,0,3.632-1.681,3.632-2.574,0-1.24-.9-1.836-3.827-2.43-5.521-.943-9.9-2.828-9.9-8.436,0-5.308,3.55-7.39,9.463-7.39a38.307,38.307,0,0,1,9.982,1.365v4.672H59.467Zm-31.9,13.588v-.74h-.755v.738a6.663,6.663,0,0,1-6.26-6.3h.75v-.755h-.746a6.662,6.662,0,0,1,6.256-6.248v.742h.755v-.744a6.662,6.662,0,0,1,6.274,6.062v.216h-.756V23.5h.756V23.7a6.662,6.662,0,0,1-6.274,6.065Zm12.574.014,0-19.6h-6.3v1.838a12.873,12.873,0,0,0-4.282-1.62h.036V8.229h.769V6.63H24.016v1.6h.768V10.4h.044a12.945,12.945,0,1,0,9.028,23.823l1.134,1.852h6.652v-6.3H40.137ZM107.01,11.509H120v4.676h-3.105l-7.966,19.6C106.646,41.289,102.9,46.47,97.185,46.47A21.98,21.98,0,0,1,92.615,46l.57-5.716a16.271,16.271,0,0,0,2.493.258,6.976,6.976,0,0,0,6.57-4.5L94.176,16.185h-3.1V11.509h13v4.676h-3.1l4.573,11.25,4.573-11.25h-3.1V11.509ZM30.491,20.315l-.479-.48-2.434,2.121a1.155,1.155,0,0,0-.391-.069,1.222,1.222,0,1,0,1.189,1.222,1.252,1.252,0,0,0-.055-.368l2.17-2.427"></path></svg>