<svg xmlns="http://www.w3.org/2000/svg" id="ibm-business-partner" width="159.624" height="85" viewBox="0 0 159.624 85"><defs><style>      .cls-1 {        fill: #1f70c1;      }      .cls-2 {        fill: #fff;      }    </style></defs><path id="Path_116332" data-name="Path 116332" class="cls-1" d="M102.1,22.444V0H0V56.329H57.451V78.7H159.607V22.444H102.1"></path><path id="Path_116333" data-name="Path 116333" class="cls-2" d="M38.661,38.745V7.29h76.18v51.4H17.551V38.745h21.11" transform="translate(42.333 17.584)"></path><path id="Path_116334" data-name="Path 116334" class="cls-1" d="M93.287,58.676h1.962v.464h-.682v2.685h-.59V59.14h-.689v-.464m2.985,3.149h-.587V58.676h.935l.317,1.464c.051.239.082.485.109.727h.01a6.485,6.485,0,0,1,.092-.727l.314-1.464H98.4v3.149h-.587v-.989c0-.624.01-1.252.051-1.877h-.007l-.631,2.866h-.355l-.618-2.866h-.02c.038.628.048,1.252.048,1.877v.989m-70.891-39.6V9.608h3.8a3.075,3.075,0,0,1,2.675.925,3.385,3.385,0,0,1,.621,2.272,2.443,2.443,0,0,1-1.515,2.641v.034c1.331.184,1.836,1.293,1.836,2.924a6.058,6.058,0,0,1-.167,1.549,2.846,2.846,0,0,1-3.095,2.272H25.385Zm2.863-1.853a3.5,3.5,0,0,0,1.413-.136c.641-.283.723-1.109.723-1.747,0-1.365-.27-1.935-1.733-1.935h-.908v3.818h.5Zm-.068-5.667c.573,0,1.314.034,1.682-.437a2.411,2.411,0,0,0,.252-1.361c0-.942-.2-1.416-1.28-1.447h-1.1v3.245h.44m10.3,6.108h-.034a1.994,1.994,0,0,1-2.037,1.665c-1.733,0-2.119-.894-2.119-2.474V12.737h2.187V19.23a2.324,2.324,0,0,0,.218,1.262.847.847,0,0,0,.676.3c1.024,0,1.01-1.16,1.01-1.9V12.737h2.187v9.489H38.477V20.813M44.3,19.1c-.167,1.75.5,1.7,1.007,1.7a.846.846,0,0,0,.911-1.061c-.034-.539-.655-.839-1.075-1.126l-1.194-.826a3.5,3.5,0,0,1-1.8-3c0-1.464,1.16-2.307,3.265-2.307s3.095,1.112,3.044,3.146H46.267c.051-1.061-.252-1.464-1.01-1.464-.522,0-.925.235-.925.775,0,.556.406.805.826,1.092l1.781,1.211a3.4,3.4,0,0,1,1.5,1.866c.184,1.648-.218,3.364-3.248,3.364a2.837,2.837,0,0,1-3.078-3.381H44.3m5.971-6.353h2.187v9.489H50.269Zm0-3.129h2.187v1.986H50.269Zm6.438,4.1h.031a2.042,2.042,0,0,1,1.969-1.228,2.068,2.068,0,0,1,2.187,2.423v7.319H58.707V15.9c0-.925-.1-1.529-.925-1.563s-1.112.74-1.075,1.75v6.138H54.52V12.737h2.187v.976M62.7,16c-.1-2.238,1.044-3.518,3.2-3.518,3.047,0,3.364,1.58,3.364,4.173v1.28H64.882v1.378c.017,1.245.488,1.481,1.143,1.481.805,0,1.044-.587,1.01-1.781h2.187c.082,2.119-.792,3.467-3.03,3.467-2.521,0-3.548-1.194-3.5-3.985V16Zm4.378.252v-.822c-.017-.959-.27-1.262-1.143-1.262-1.1,0-1.044.843-1.044,1.7v.386h2.187M73.146,19.1c-.167,1.75.5,1.7,1.01,1.7a.847.847,0,0,0,.911-1.061c-.034-.539-.655-.839-1.078-1.126l-1.194-.826a3.5,3.5,0,0,1-1.8-3c0-1.464,1.16-2.307,3.265-2.307,2.122,0,3.095,1.112,3.044,3.146H75.115c.051-1.061-.252-1.464-1.01-1.464-.522,0-.925.235-.925.775,0,.556.406.805.826,1.092l1.784,1.211a3.383,3.383,0,0,1,1.494,1.866c.188,1.648-.218,3.364-3.245,3.364a2.834,2.834,0,0,1-3.078-3.381h2.184m7.721.007c-.167,1.75.5,1.7,1.01,1.7a.844.844,0,0,0,.908-1.061c-.034-.539-.655-.839-1.075-1.126l-1.194-.826a3.493,3.493,0,0,1-1.8-3c0-1.464,1.16-2.307,3.265-2.307s3.095,1.112,3.044,3.146H82.836c.051-1.061-.252-1.464-1.01-1.464-.519,0-.925.235-.925.775,0,.556.406.805.826,1.092l1.781,1.211a3.4,3.4,0,0,1,1.5,1.866c.184,1.648-.218,3.364-3.248,3.364a2.835,2.835,0,0,1-3.078-3.381h2.187M25.436,39.944V27.327h4.811c2.255,0,2.945,1.815,2.945,3.583a3.753,3.753,0,0,1-1.177,3,4.112,4.112,0,0,1-2.641.757h-1.58v5.285H25.436Zm2.358-7.135h1.262c1.027,0,1.716-.437,1.716-1.969,0-1.447-.57-1.665-1.9-1.665H27.8V32.81m10.847,7.135a1.8,1.8,0,0,1-.136-.976h-.034A2.324,2.324,0,0,1,36.556,40.2c-1.767,0-2.539-.891-2.539-2.842,0-2.17,1.532-2.692,3.248-3.4.925-.386,1.259-.805,1.075-1.58-.1-.423-.44-.488-1.027-.488-.993,0-1.16.522-1.143,1.378H34.086c-.017-1.8.57-3.061,3.313-3.061,2.979,0,3.163,1.566,3.129,2.812v5.6a5.173,5.173,0,0,0,.184,1.331H38.644Zm-.3-5c-.539.368-1.194.74-1.771,1.211A1.466,1.466,0,0,0,36.2,37.3c0,.723.218,1.215,1.027,1.215,1.293,0,1.061-1.634,1.112-2.542V34.946m6.073-2.808h.034a3.169,3.169,0,0,1,.86-1.348,1.875,1.875,0,0,1,1.361-.5v2.59c-1.211-.116-2.136.184-2.17,1.583v5.483H42.315V30.452h2.1v1.686m7.315,7.837c-1.293.15-3.115.27-3.115-1.494V32.056h-.891v-1.6H48.6v-2.61h2.2v2.61h.925v1.6H50.8v5.886c.051.406.655.355.925.321v1.713m3.9-8.544h.031A2.042,2.042,0,0,1,57.632,30.2a2.068,2.068,0,0,1,2.187,2.423v7.322H57.632V33.622c0-.925-.1-1.532-.925-1.563s-1.112.74-1.075,1.747v6.142H53.445V30.459h2.187v.972m5.991,2.286c-.1-2.238,1.044-3.518,3.2-3.518,3.047,0,3.364,1.583,3.364,4.173v1.28H63.811V37.03c.017,1.245.488,1.484,1.143,1.484.805,0,1.044-.59,1.01-1.784h2.187c.082,2.122-.792,3.467-3.03,3.467-2.521,0-3.548-1.194-3.5-3.989V33.717ZM66,33.97v-.822c-.017-.959-.27-1.262-1.143-1.262-1.1,0-1.044.843-1.044,1.7v.386H66m6.193-1.832h.034a3.2,3.2,0,0,1,.856-1.348,1.884,1.884,0,0,1,1.361-.5v2.59c-1.208-.116-2.136.184-2.17,1.583v5.483H70.082V30.452h2.105v1.686" transform="translate(61.229 23.175)"></path><path id="Path_116335" data-name="Path 116335" class="cls-2" d="M3.418,3.985H15.172V5.513H3.418Zm0,3.214H15.172V8.721H3.418Zm3.357,3.2h5.043v1.529H6.775Zm0,3.207h5.043v1.525H6.775Zm0,3.2h5.043v1.529H6.775Zm0,3.207h5.043V21.55H6.775ZM3.418,23.222H15.172v1.532H3.418Zm0,3.207H15.172v1.525H3.418ZM16.848,7.2H34.965a7.9,7.9,0,0,1,.522,1.522H16.848V7.2m3.361,3.2h5.033v1.529H20.209Zm10.072,0h5.371a6.842,6.842,0,0,1-.229,1.529H30.281V10.4M20.209,16.807H33.147a8.282,8.282,0,0,1,1.4,1.529H20.209V16.807m0,3.207h5.033V21.55H20.209Zm10.072,0h5.111a7.052,7.052,0,0,1,.29,1.535h-5.4V20.014M16.848,23.222H35.47A5.6,5.6,0,0,1,35,24.75H16.848V23.222m0,3.207H33.686c-1.494,1.252-2.808,1.525-5.121,1.525H16.848V26.429M37,3.985h9.6l.508,1.529H37V3.985M37,7.2H47.658l.5,1.522H37V7.2m3.357,3.2h8.37l.508,1.532H40.353V10.4m10.721,3.207H60.5v1.525H55.465V13.788L55,15.132H50.569l.5-1.525m-.781,1.525H45.853l-.464-1.348v1.348H40.353V13.607h9.434l.5,1.525m-9.939,1.675h5.036v1.529H40.353Zm0,3.207h5.036V21.55H40.353ZM37,23.222h8.394v1.532H37Zm0,3.207h8.394v1.525H37ZM54.271,3.985h9.588V5.513h-10.1l.515-1.529M53.2,7.2H63.858V8.721H52.7L53.2,7.2m-1.065,3.2H60.5v1.532H51.63l.508-1.532m3.327,6.408H60.5v1.529H55.465Zm0,3.207H60.5V21.55H55.465Zm0,3.207h8.394v1.532H55.465Zm0,3.207h8.394v1.525H55.465ZM46.42,16.807h8.022l-.519,1.532H46.942l-.522-1.532M47.5,20.014h5.848l-.519,1.535H48.023L47.5,20.014m1.085,3.207h3.675l-.515,1.529H49.115l-.525-1.529m1.092,3.207h1.5l-.522,1.522H50.2l-.515-1.522M20.209,15.135H33.147a8.747,8.747,0,0,0,1.5-1.529H20.209v1.529M16.848,5.513H33.686c-1.494-1.252-2.808-1.522-5.121-1.522H16.848V5.513M67.1,5.623a1.648,1.648,0,1,1,1.645,1.651A1.648,1.648,0,0,1,67.1,5.623Zm2.989,0a1.338,1.338,0,1,0-.389.95,1.338,1.338,0,0,0,.389-.95Zm-.515.9h-.406l-.4-.754h-.348v.754h-.351V4.739h.863a.933.933,0,0,1,.481.089.51.51,0,0,1,.212.461c0,.321-.171.457-.485.478l.43.757ZM68.946,5.5c.2,0,.334-.041.334-.27S69.028,5,68.857,5h-.433v.5h.522" transform="translate(8.244 9.595)"></path></svg>