<svg xmlns="http://www.w3.org/2000/svg" width="150.423" height="58.049" viewBox="0 0 150.423 58.049"><defs><style>      .cls-1 {        fill: #22ad69;      }      .cls-2 {        fill: #222;      }      .cls-3 {        fill: #171a1d;      }    </style></defs><g id="Group_69243" data-name="Group 69243" transform="translate(-10.843 -13)"><path id="Path_111807" data-name="Path 111807" class="cls-1" d="M162.8,44.488,169.114,21l5.2,1.393-5.849,22.1Z" transform="translate(-22.33 -3.823)"></path><path id="Path_111808" data-name="Path 111808" class="cls-1" d="M171.6,44.166,179.027,16.5l5.2,1.393-6.964,26.273Z" transform="translate(-22.96 -3.5)"></path><g id="Group_21604" data-name="Group 21604" transform="translate(35.189 47.19)"><path id="Path_111809" data-name="Path 111809" class="cls-2" d="M43.2,75.953V53.3h8.912c8.82,0,8.727,13.929,0,13.929H47.749V75.87l-4.549.1Zm8.541-13.09c3.063,0,3.063-5.106,0-5.106h-4v5.106Z" transform="translate(-43.2 -52.465)"></path><path id="Path_111810" data-name="Path 111810" class="cls-2" d="M67.762,52.4h.469L77.79,75.888H72.683l-.929-2.411H64.231L63.3,75.888H58.2Zm2.322,16.8-2.046-5.849L65.9,69.2Z" transform="translate(-44.274 -52.4)"></path><path id="Path_111811" data-name="Path 111811" class="cls-2" d="M93.127,75.953l-4.549-8.638H86.349v8.638H81.8V53.3h8.912c8.077,0,8.82,11.327,2.229,13.282l5.29,9.377ZM86.349,62.862h4c3.063,0,3.063-5.106,0-5.106h-4Z" transform="translate(-45.965 -52.465)"></path><path id="Path_111812" data-name="Path 111812" class="cls-2" d="M107.164,75.96v-18.1H101.5V53.4h15.783v4.456h-5.664v18.1Z" transform="translate(-47.374 -52.471)"></path><path id="Path_111813" data-name="Path 111813" class="cls-2" d="M126.749,75.917H122.2V52.8h1.208l11.42,13.282V53.264h4.549V76.288h-1.208l-11.42-12.812Z" transform="translate(-48.857 -52.429)"></path><path id="Path_111814" data-name="Path 111814" class="cls-2" d="M145.2,75.953V53.3h11.327v4.549h-6.778V62.4h5.939v4.549h-5.939v4.549H156.9v4.549H145.2Z" transform="translate(-50.503 -52.465)"></path><path id="Path_111815" data-name="Path 111815" class="cls-2" d="M172.627,75.953l-4.549-8.638h-2.229v8.638H161.3V53.3h8.912c8.077,0,8.82,11.327,2.229,13.282l5.29,9.377Zm-6.778-13.09h4c3.063,0,3.063-5.106,0-5.106h-4Z" transform="translate(-51.656 -52.465)"></path></g><path id="Path_115241" data-name="Path 115241" class="cls-3" d="M266.873,299.281l7.9,11.331h-5.562l-5.974-8.791v8.791H258.7V288.155h4.533v8.962l5.666-8.962h5.219Zm15.692-11.056h-4.533v22.456h11.574v-4.533h-7.138l.1-17.924ZM303,287.4l9.443,23.245h-5.082l-.893-2.438h-7.451l-.893,2.438h-5.112l9.443-23.245Zm1.82,16.619-2.026-5.8-2.095,5.8Zm13.975-3.331-4.636-12.465h-5.082l9.443,23.245h.447l9.443-23.245h-5.112Zm13.083,9.993h4.533V288.224h-4.533Zm22.456-22.456-4.567,7.761-4.567-7.761h-5.459l7.794,12.327v10.128h4.464V300.551l7.863-12.327Zm28.706,10.816A11.64,11.64,0,1,1,371.4,287.4h0a11.651,11.651,0,0,1,11.64,11.64Zm-4.361,0a7.246,7.246,0,1,0-7.246,7.246h0a7.24,7.24,0,0,0,7.246-7.211Z" transform="translate(-247.857 -270.038)"></path></g></svg>