<svg xmlns="http://www.w3.org/2000/svg" width="160" height="52.383" viewBox="0 0 160 52.383"><defs><style>      .cls-1 {        fill: #33547d;      }    </style></defs><g id="Group_69242" data-name="Group 69242" transform="translate(-10.003 -8.002)"><g id="mixpanel_1_" data-name="mixpanel (1)" transform="translate(10.003 8.002)"><g id="Group_20154" data-name="Group 20154" transform="translate(0.565 31.693)"><circle id="Ellipse_4415" data-name="Ellipse 4415" class="cls-1" cx="10.345" cy="10.345" r="10.345" transform="translate(0 0)"></circle><circle id="Ellipse_4416" data-name="Ellipse 4416" class="cls-1" cx="7.316" cy="7.316" r="7.316" transform="translate(40.369 3.141)"></circle><circle id="Ellipse_4417" data-name="Ellipse 4417" class="cls-1" cx="3.322" cy="3.322" r="3.322" transform="translate(75.145 7.135)"></circle></g><path id="Path_111412" data-name="Path 111412" class="cls-1" d="M31.095,25.869a2.323,2.323,0,0,1-1.513-.514,1.622,1.622,0,0,1-.613-1.268V16.5c0-2.619-1.494-4.627-4.843-4.627a5.856,5.856,0,0,0-3.9,1.352,4.063,4.063,0,0,0-1.485,3.313v7.547a1.574,1.574,0,0,1-.6,1.282,2.272,2.272,0,0,1-1.531.5,2.3,2.3,0,0,1-1.523-.507,1.6,1.6,0,0,1-.6-1.275V16.5c0-2.619-1.63-4.627-4.979-4.627-3.44,0-5.25,2.162-5.25,4.666v7.547a1.6,1.6,0,0,1-.607,1.272,2.3,2.3,0,0,1-1.522.507,2.323,2.323,0,0,1-1.513-.507A1.623,1.623,0,0,1,0,24.087V10.622a1.555,1.555,0,0,1,.575-1.31A2.262,2.262,0,0,1,2.123,8.8a2.231,2.231,0,0,1,1.568.5,1.531,1.531,0,0,1,.566,1.319v1.214a7.382,7.382,0,0,1,6.381-3.187,7.808,7.808,0,0,1,6.926,3.375,9.048,9.048,0,0,1,7.558-3.375c5.477,0,8.1,3.151,8.1,7.586v7.851a1.6,1.6,0,0,1-.6,1.276,2.3,2.3,0,0,1-1.523.507ZM39.2,2.048a2.314,2.314,0,0,1,2.489,2.086,2.529,2.529,0,0,1-4.979,0A2.336,2.336,0,0,1,39.2,2.048Zm0,23.822a2.3,2.3,0,0,1-1.523-.507,1.6,1.6,0,0,1-.6-1.276v-13.5a2.161,2.161,0,0,1,4.255,0v13.5a1.6,1.6,0,0,1-.61,1.272,2.3,2.3,0,0,1-1.522.507ZM53.318,14.946,58.7,9.332a1.951,1.951,0,0,1,1.4-.531,2.024,2.024,0,0,1,1.387.414,1.4,1.4,0,0,1,.56,1.142,1.381,1.381,0,0,1-.5,1.024L55.626,17.3l6.021,5.953a1.37,1.37,0,0,1,.5,1.062,1.779,1.779,0,0,1-1.9,1.555,1.968,1.968,0,0,1-1.494-.569l-5.428-5.655L47.886,25.3a1.972,1.972,0,0,1-1.494.569,1.779,1.779,0,0,1-1.9-1.555,1.37,1.37,0,0,1,.5-1.062L51,17.295l-5.93-5.917a1.381,1.381,0,0,1-.5-1.024,1.4,1.4,0,0,1,.56-1.142A2.024,2.024,0,0,1,46.523,8.8a1.953,1.953,0,0,1,1.4.531l5.386,5.614ZM76.534,26.018a8.585,8.585,0,0,1-6.971-3.262v8.421a2.161,2.161,0,0,1-4.255,0V10.582a1.5,1.5,0,0,1,.542-1.274,2.182,2.182,0,0,1,1.5-.508,2.262,2.262,0,0,1,1.517.527,1.562,1.562,0,0,1,.563,1.293v1.291a8.632,8.632,0,0,1,7.108-3.263c5.205,0,9.46,3.641,9.46,8.691.008,5.231-4.249,8.683-9.455,8.683ZM75.68,11.608a5.827,5.827,0,0,0-6.111,5.728,5.827,5.827,0,0,0,6.111,5.728c3.669,0,6.065-2.313,6.065-5.728S79.343,11.608,75.68,11.608Zm32.772,12.48a2.143,2.143,0,0,1-4.21,0v-.833a8.443,8.443,0,0,1-6.608,2.769c-6.337,0-10-3.868-10-8.691a7.789,7.789,0,0,1,2.976-6.241,11.208,11.208,0,0,1,7.471-2.445c6.518,0,10.366,3.566,10.366,8.691v6.752h0ZM98.04,11.684a5.792,5.792,0,0,0-6.156,5.652c0,3.262,2.128,5.652,6.156,5.652a5.8,5.8,0,0,0,6.155-5.652C104.2,13.849,101.662,11.684,98.04,11.684Zm23.216-3.035a10.316,10.316,0,0,1,6.767,2.262,7.2,7.2,0,0,1,2.738,5.661v7.509a2.161,2.161,0,0,1-4.255,0V16.158c-.093-2.363-2.406-4.24-5.228-4.24s-5.135,1.876-5.228,4.24v7.929a2.161,2.161,0,0,1-4.255,0V16.578a7.158,7.158,0,0,1,2.71-5.658,10.27,10.27,0,0,1,6.751-2.272Zm31.638,8.723c0,.607-.407,1.214-1.629,1.214H137.734c.226,2.619,2.354,4.59,6.11,4.59a7.661,7.661,0,0,0,5.25-1.858,2.262,2.262,0,0,1,1.4-.569,1.9,1.9,0,0,1,1.266.419,1.322,1.322,0,0,1,.5,1.06,1.479,1.479,0,0,1-.543,1.024,11.989,11.989,0,0,1-8.057,2.769c-6.745,0-10.32-3.946-10.32-8.691,0-4.969,4.3-8.691,10.139-8.691,5.7,0,9.415,3.869,9.415,8.726Zm-9.415-5.879c-2.9-.03-5.35,1.794-5.658,4.21h11.134C148.7,13.322,146.328,11.5,143.479,11.493Zm14.39,14.376a2.3,2.3,0,0,1-1.523-.507,1.6,1.6,0,0,1-.6-1.275V1.785a2.161,2.161,0,0,1,4.255,0v22.3a1.6,1.6,0,0,1-.6,1.275,2.3,2.3,0,0,1-1.521.507Z" transform="translate(0.003 -0.003)"></path></g></g></svg>