<svg xmlns="http://www.w3.org/2000/svg" width="200.192" height="30" viewBox="0 0 200.192 30"><defs><style>      .cls-1 {        fill: #343535;      }      .cls-2 {        fill: #cbdda2;      }    </style></defs><g id="salesmanago" transform="translate(-9.649 -11.063)"><path id="Path_115328" data-name="Path 115328" class="cls-1" d="M1.738-145.694a7.79,7.79,0,0,0,5.71,2.5c2.589,0,3.618-1.289,3.618-2.472,0-1.648-1.917-2.114-4.113-2.687C4.008-149.1.568-149.965.568-153.8c0-3.046,2.624-5.375,6.561-5.375a9.244,9.244,0,0,1,6.738,2.544l-1.809,2.365a7.27,7.27,0,0,0-5.213-2.078c-1.88,0-3.05.9-3.05,2.257,0,1.433,1.844,1.9,3.972,2.436,2.979.75,6.526,1.684,6.526,5.661,0,3.046-2.092,5.625-6.987,5.625A9.543,9.543,0,0,1,0-143.261Z" transform="translate(9.649 176.324)"></path><path id="Path_115329" data-name="Path 115329" class="cls-1" d="M13.337-139.323H4.788l-1.312,3.511H0l7.093-18.2h3.937l7.093,18.2H14.646Zm-7.66-2.795H12.45l-3.369-9.208Z" transform="translate(24.685 171.455)"></path><path id="Path_115330" data-name="Path 115330" class="cls-1" d="M0-154.316H3.157v15.406H11.1v2.834H0Z" transform="translate(44.793 171.757)"></path><path id="Path_115331" data-name="Path 115331" class="cls-1" d="M0-154.316H12.341v2.834H3.157v4.729h9.007v2.795H3.157v5.052h9.185v2.834H0Z" transform="translate(58.766 171.757)"></path><path id="Path_115332" data-name="Path 115332" class="cls-1" d="M1.738-145.732a7.789,7.789,0,0,0,5.71,2.508c2.589,0,3.618-1.289,3.618-2.472,0-1.648-1.917-2.114-4.113-2.687C4.008-149.134.533-150,.533-153.83c0-3.01,2.624-5.335,6.561-5.335a9.244,9.244,0,0,1,6.738,2.544l-1.809,2.365a7.27,7.27,0,0,0-5.213-2.078c-1.88,0-3.05.9-3.05,2.257,0,1.433,1.844,1.9,3.972,2.436,2.979.75,6.526,1.684,6.526,5.661,0,3.046-2.092,5.625-6.951,5.625A9.543,9.543,0,0,1,0-143.26Z" transform="translate(73.199 176.358)"></path><path id="Path_115333" data-name="Path 115333" class="cls-1" d="M15.994-109.694c0-1.433-.638-2.365-2.128-2.365a3.888,3.888,0,0,0-3.014,1.755v9.2H8.018v-8.6c0-1.433-.638-2.365-2.167-2.365a3.943,3.943,0,0,0-3.017,1.795v9.208H0v-13.221H2.834v1.791A5.585,5.585,0,0,1,7.093-114.6a3.352,3.352,0,0,1,3.547,2.436,5.554,5.554,0,0,1,4.433-2.436c2.411,0,3.759,1.325,3.759,3.977v9.526H16Z" transform="translate(114.728 136.81)"></path><path id="Path_115334" data-name="Path 115334" class="cls-1" d="M8.76-105.219a5.493,5.493,0,0,1-4.22,1.755,4.349,4.349,0,0,1-3.207-1.212A4.349,4.349,0,0,1,0-107.835c0-3.046,2.411-4.3,4.539-4.3a5.394,5.394,0,0,1,4.22,1.684v-1.97c0-1.54-1.241-2.472-3.05-2.472a5.245,5.245,0,0,0-3.866,1.684L.677-115.215a7.79,7.79,0,0,1,5.491-2.114c2.872,0,5.426,1.218,5.426,4.765v8.742H8.76Zm0-3.547a3.834,3.834,0,0,0-3.121-1.361c-1.6,0-2.8.932-2.8,2.365s1.206,2.365,2.8,2.365a3.88,3.88,0,0,0,3.121-1.361Z" transform="translate(136.467 139.5)"></path><path id="Path_115335" data-name="Path 115335" class="cls-1" d="M8.83-109.333c0-2.042-1.029-2.723-2.624-2.723a4.3,4.3,0,0,0-3.372,1.79v9.208H0v-13.221H2.834v1.791A6.126,6.126,0,0,1,7.412-114.6c2.8,0,4.22,1.54,4.22,4.228v9.276H8.8Z" transform="translate(151.716 136.807)"></path><path id="Path_115336" data-name="Path 115336" class="cls-1" d="M8.76-105.219a5.493,5.493,0,0,1-4.22,1.755,4.349,4.349,0,0,1-3.207-1.212A4.349,4.349,0,0,1,0-107.835c0-3.046,2.411-4.3,4.539-4.3a5.394,5.394,0,0,1,4.22,1.684v-1.97c0-1.54-1.241-2.472-3.05-2.472a5.245,5.245,0,0,0-3.866,1.684L.677-115.215a7.79,7.79,0,0,1,5.491-2.114c2.872,0,5.426,1.218,5.426,4.765v8.742H8.76Zm0-3.547a3.834,3.834,0,0,0-3.121-1.361c-1.6,0-2.8.932-2.8,2.365s1.206,2.365,2.8,2.365a3.88,3.88,0,0,0,3.121-1.361Z" transform="translate(166.257 139.5)"></path><path id="Path_115337" data-name="Path 115337" class="cls-1" d="M1.986-144.637A5.065,5.065,0,0,0,6.1-142.953c1.88,0,3.866-.86,3.866-3.584v-1.576a5.224,5.224,0,0,1-4.184,2.186C2.447-145.928,0-148.364,0-152.7c0-4.264,2.447-6.772,5.781-6.772a5.191,5.191,0,0,1,4.184,2.15v-1.827H12.8v12.5c0,4.765-3.476,6.019-6.7,6.019A7.328,7.328,0,0,1,.636-142.6ZM9.966-155.17a4.293,4.293,0,0,0-3.334-1.791c-2.234,0-3.688,1.684-3.688,4.228s1.417,4.228,3.688,4.228A4.14,4.14,0,0,0,9.966-150.3Z" transform="translate(180.726 181.677)"></path><path id="Path_115338" data-name="Path 115338" class="cls-1" d="M0-110.415a6.574,6.574,0,0,1,6.7-6.918,6.581,6.581,0,0,1,6.738,6.918c0,3.8-2.553,6.951-6.738,6.951A6.6,6.6,0,0,1,0-110.415Zm10.5,0c0-2.329-1.348-4.371-3.794-4.371-2.411,0-3.759,2.042-3.759,4.371s1.348,4.407,3.759,4.407C9.15-106.044,10.5-108.086,10.5-110.415Z" transform="translate(196.4 139.536)"></path><path id="Path_115339" data-name="Path 115339" class="cls-2" d="M0-120.039l4.539-3.153v-12.934L0-132.973Z" transform="translate(90.896 158.297)"></path><path id="Path_115340" data-name="Path 115340" class="cls-2" d="M0-162.55l4.539-3.189V-184.33L0-181.178Z" transform="translate(98.84 200.949)"></path><path id="Path_115341" data-name="Path 115341" class="cls-2" d="M0-228.17v24.184l4.539-3.189v-24.148Z" transform="translate(106.784 242.387)"></path></g></svg>