<svg xmlns="http://www.w3.org/2000/svg" width="192.851" height="44" viewBox="0 0 192.851 44"><defs><style>      .cls-1 {        fill: #3498db;        fill-rule: evenodd;      }    </style></defs><g id="Page-1" transform="translate(-42 -56)"><g id="xamarin-logo" transform="translate(42 56)"><path id="Logo" class="cls-1" d="M119.281,90.438l-4.988-9.571-5.1,9.571H103.7l7.779-12.352-7-12.276h5.562l4.542,9.327,4.922-9.327H124.6l-7.19,12.2,7.3,12.428Zm17.786,0v-2.68h-.076a6.46,6.46,0,0,1-5.752,3.156,6.316,6.316,0,0,1-4.518-1.559,5.564,5.564,0,0,1-1.652-4.22q0-5.665,6.359-6.445l5.676-.779q0-3.973-3.683-3.973a10.645,10.645,0,0,0-6.454,2.167V72.226a12.18,12.18,0,0,1,3.151-1.2,15.217,15.217,0,0,1,3.759-.532q7.517,0,7.517,7.6V90.438h-4.328Zm-4.157-8.916a5.091,5.091,0,0,0-2.753.97,2.806,2.806,0,0,0-.778,2.186,2.531,2.531,0,0,0,.892,2,3.475,3.475,0,0,0,2.335.76,4.242,4.242,0,0,0,3.227-1.35A4.716,4.716,0,0,0,137.1,82.72V80.971l-4.2.551Zm36.474,8.916V79.45a7.516,7.516,0,0,0-.854-4.03,3.259,3.259,0,0,0-3-1.331,3.5,3.5,0,0,0-2.9,1.6,6.21,6.21,0,0,0-1.177,3.821V90.438h-4.385V79.07q0-4.981-3.816-4.981a3.565,3.565,0,0,0-2.942,1.5,6.309,6.309,0,0,0-1.139,3.916V90.438h-4.385V70.972h4.385v3h.076a6.768,6.768,0,0,1,6.151-3.479,5.85,5.85,0,0,1,3.417,1.027,5.33,5.33,0,0,1,2.107,2.795,7.12,7.12,0,0,1,6.53-3.821q6.34,0,6.34,7.908V90.438Zm18.982,0v-2.68h-.076a6.46,6.46,0,0,1-5.752,3.156,6.316,6.316,0,0,1-4.518-1.559,5.564,5.564,0,0,1-1.652-4.22q0-5.665,6.359-6.445l5.676-.779q0-3.973-3.683-3.973a10.645,10.645,0,0,0-6.454,2.167V72.226a12.179,12.179,0,0,1,3.151-1.2,15.216,15.216,0,0,1,3.759-.532q7.517,0,7.517,7.6V90.438h-4.328Zm-4.157-8.916a5.091,5.091,0,0,0-2.753.97,2.806,2.806,0,0,0-.778,2.186,2.531,2.531,0,0,0,.892,2,3.475,3.475,0,0,0,2.335.76,4.242,4.242,0,0,0,3.227-1.35A4.716,4.716,0,0,0,188.4,82.72V80.971l-4.2.551Zm23.174-6.273a4.759,4.759,0,0,0-2.544-.665,3.673,3.673,0,0,0-3.094,1.635,7.122,7.122,0,0,0-1.177,4.258v9.962h-4.385V70.972h4.385v3.783h.076q1.4-4.125,4.974-4.125a4.57,4.57,0,0,1,1.765.266v4.353Zm4.365-8.631a2.688,2.688,0,0,1-1.9-.722,2.4,2.4,0,0,1-.778-1.806,2.443,2.443,0,0,1,.778-1.844,2.8,2.8,0,0,1,3.816.019,2.507,2.507,0,0,1,0,3.631A2.713,2.713,0,0,1,211.748,66.618Zm-2.24,23.82V70.972h4.385V90.438Zm20.958,0V79.507q0-5.418-3.892-5.418a4.212,4.212,0,0,0-3.284,1.5,5.5,5.5,0,0,0-1.31,3.783V90.438H217.6V70.972h4.385v3.118h.076a6.878,6.878,0,0,1,6.3-3.593q6.492,0,6.492,7.984V90.438h-4.385ZM56.23,56a3.911,3.911,0,0,0-3.306,1.917L42.5,76.083a3.961,3.961,0,0,0,0,3.835L52.924,98.083A3.911,3.911,0,0,0,56.23,100H77.088a3.911,3.911,0,0,0,3.306-1.917L90.824,79.917a3.961,3.961,0,0,0,0-3.835L80.395,57.917A3.911,3.911,0,0,0,77.088,56Zm.189,10.627a.45.45,0,0,1,.087,0h3.6a.474.474,0,0,1,.393.234l6.1,10.9a.471.471,0,0,1,.058.176.47.47,0,0,1,.058-.176l6.088-10.9a.475.475,0,0,1,.408-.234h3.6a.493.493,0,0,1,.408.688L71.262,78l5.957,10.671a.494.494,0,0,1-.408.7h-3.6a.476.476,0,0,1-.408-.249l-6.088-10.9a.471.471,0,0,1-.058-.176.47.47,0,0,1-.058.176l-6.1,10.9a.475.475,0,0,1-.393.249h-3.6a.494.494,0,0,1-.408-.7L62.057,78,56.1,67.315a.492.492,0,0,1,.32-.688Z" transform="translate(-42 -56)"></path></g></g></svg>